<svg width="212" height="212" viewBox="0 0 212 212" fill="none" xmlns="http://www.w3.org/2000/svg">
<g clip-path="url(#clip0)">
<path d="M106 85.5582C125.895 85.5582 142.023 69.4299 142.023 49.5347C142.023 29.6395 125.895 13.5113 106 13.5113C86.1048 13.5113 69.9766 29.6395 69.9766 49.5347C69.9766 69.4299 86.1048 85.5582 106 85.5582Z" fill="white"/>
<path d="M178.875 85.5577C191.452 85.5577 201.648 75.3617 201.648 62.7843C201.648 50.2069 191.452 40.0109 178.875 40.0109C166.298 40.0109 156.102 50.2069 156.102 62.7843C156.102 75.3617 166.298 85.5577 178.875 85.5577Z" fill="#26E5AE"/>
<path d="M33.125 85.5577C45.7024 85.5577 55.8984 75.3617 55.8984 62.7843C55.8984 50.2069 45.7024 40.0109 33.125 40.0109C20.5476 40.0109 10.3516 50.2069 10.3516 62.7843C10.3516 75.3617 20.5476 85.5577 33.125 85.5577Z" fill="#26E5AE"/>
<path d="M55.563 106.009C46.5986 98.6641 38.4801 99.6363 28.1148 99.6363C12.6123 99.6363 0 112.174 0 127.581V172.801C0 179.492 5.46148 184.933 12.1776 184.933C41.1727 184.933 37.6797 185.458 37.6797 183.683C37.6797 151.64 33.8844 128.142 55.563 106.009Z" fill="#26E5AE"/>
<path d="M115.859 99.8015C97.7544 98.2914 82.0179 99.8189 68.4445 111.023C45.7303 129.217 50.1016 153.714 50.1016 183.682C50.1016 191.611 56.5526 198.183 64.602 198.183C152.003 198.183 155.482 201.002 160.665 189.525C162.364 185.643 161.898 186.877 161.898 149.746C161.898 120.254 136.362 99.8015 115.859 99.8015Z" fill="white"/>
<path d="M183.885 99.6359C173.463 99.6359 165.389 98.6736 156.437 106.008C177.954 127.977 174.32 149.872 174.32 183.682C174.32 185.469 171.421 184.933 199.388 184.933C206.344 184.933 212 179.297 212 172.37V127.581C212 112.174 199.388 99.6359 183.885 99.6359Z" fill="#26E5AE"/>
</g>
<defs>
<clipPath id="clip0">
<rect width="212" height="212" fill="white"/>
</clipPath>
</defs>
</svg>
