<svg width="116" height="116" viewBox="0 0 116 116" fill="none" xmlns="http://www.w3.org/2000/svg">
<path d="M58 82.1669C44.6744 82.1669 33.833 71.3256 33.833 58C33.833 44.6744 44.6744 33.833 58 33.833C71.3256 33.833 82.167 44.6744 82.167 58C82.167 71.3256 71.3256 82.1669 58 82.1669ZM58 41.083C48.672 41.083 41.083 48.672 41.083 58C41.083 67.328 48.672 74.9169 58 74.9169C67.328 74.9169 74.917 67.328 74.917 58C74.917 48.672 67.328 41.083 58 41.083Z" fill="#26E5AE"/>
<path d="M58 106.333C31.3488 106.333 9.66696 84.6512 9.66696 58C9.66696 31.3488 31.3488 9.66699 58 9.66699C84.6512 9.66699 106.333 31.3488 106.333 58C106.333 84.6512 84.6512 106.333 58 106.333ZM58 16.917C35.3464 16.917 16.917 35.3464 16.917 58C16.917 80.6536 35.3464 99.0831 58 99.0831C80.6536 99.0831 99.0831 80.6536 99.0831 58C99.0831 35.3464 80.6536 16.917 58 16.917Z" fill="#26E5AE"/>
<path d="M58 24.167C55.999 24.167 54.375 22.543 54.375 20.542V3.625C54.375 1.62399 55.999 0 58 0C60.001 0 61.625 1.62399 61.625 3.625V20.542C61.625 22.543 60.001 24.167 58 24.167Z" fill="#26E5AE"/>
<path d="M58 116C55.999 116 54.375 114.376 54.375 112.375V95.4581C54.375 93.4571 55.999 91.8331 58 91.8331C60.001 91.8331 61.625 93.4571 61.625 95.4581V112.375C61.625 114.376 60.001 116 58 116Z" fill="#26E5AE"/>
<path d="M20.542 61.625H3.625C1.62399 61.625 0 60.001 0 58C0 55.999 1.62399 54.375 3.625 54.375H20.542C22.543 54.375 24.167 55.999 24.167 58C24.167 60.001 22.543 61.625 20.542 61.625Z" fill="#26E5AE"/>
<path d="M112.375 61.625H95.458C93.457 61.625 91.833 60.001 91.833 58C91.833 55.999 93.457 54.375 95.458 54.375H112.375C114.376 54.375 116 55.999 116 58C116 60.001 114.376 61.625 112.375 61.625Z" fill="#26E5AE"/>
</svg>
