<svg width="167" height="166" viewBox="0 0 167 166" fill="none" xmlns="http://www.w3.org/2000/svg">
<path d="M84 -0.199463C38.1785 -0.199463 0.900024 37.079 0.900024 82.9005C0.900024 128.722 38.1785 166 84 166C129.822 166 167.1 128.722 167.1 82.9005C167.1 37.0785 129.822 -0.199463 84 -0.199463ZM84 135.848C54.9255 135.848 31.2715 112.194 31.2715 83.119C31.2715 54.0445 54.9255 30.3905 84 30.3905C113.075 30.3905 136.729 54.0445 136.729 83.119C136.729 112.194 113.075 135.848 84 135.848Z" fill="#26E5AE"/>
<path d="M84 45.3905C63.1965 45.3905 46.2715 62.3155 46.2715 83.119C46.2715 85.7695 46.5495 88.3555 47.0715 90.8525C50.4975 73.5945 65.751 60.5425 84 60.5425C96.4485 60.5425 106.576 70.67 106.576 83.1185C106.576 95.567 96.4485 105.695 84 105.695C79.858 105.695 76.5 102.337 76.5 98.1955C76.5 94.0535 79.858 90.6955 84 90.6955C88.1775 90.6955 91.576 87.297 91.576 83.1195C91.576 78.942 88.1775 75.5435 84 75.5435C71.5095 75.5435 61.3475 85.705 61.3475 98.196C61.3475 110.687 71.5095 120.848 84 120.848C104.803 120.848 121.728 103.923 121.728 83.12C121.728 62.3165 104.803 45.3905 84 45.3905Z" fill="#22AED1"/>
</svg>
