<svg width="123" height="123" viewBox="0 0 123 123" fill="none" xmlns="http://www.w3.org/2000/svg">
<g clip-path="url(#clip0)">
<path d="M121.984 84.0543C112.115 77.1651 102.339 72.4987 92.8799 70.1555C97.4469 55.2888 92.6185 41.0569 92.3831 40.3814C91.9061 39.012 90.2071 38.3415 88.9181 39.0427C84.3657 41.5196 80.2535 44.2048 76.6442 47.0509C74.1768 38.4219 69.7343 29.4782 63.4022 20.4073C62.4584 19.0556 60.3554 19.0483 59.407 20.4073C53.0757 29.4765 48.6337 38.4187 46.166 47.0467C42.5577 44.2021 38.4477 41.5181 33.8975 39.0424C32.6034 38.3378 30.9107 39.0088 30.4324 40.3811C30.1968 41.0574 25.3585 55.3188 29.9503 70.2025C20.6136 72.5082 10.8939 77.1585 1.01641 84.0536C-0.335226 84.9974 -0.342535 87.1004 1.01641 88.0488C15.8149 98.3795 30.0914 103.609 43.4844 103.608C49.6423 103.606 55.7855 102.46 61.4978 100.15C66.4315 102.146 72.4505 103.608 79.5088 103.608C83.3481 103.608 83.3144 98.7354 79.5112 98.7354C75.1052 98.7354 71.1522 98.1027 67.6635 97.1173C69.0706 96.2928 70.3302 95.4584 71.4345 94.6591C75.4524 91.7517 79.6649 89.7886 83.2564 86.1997C86.5629 82.8959 89.2457 79.0198 91.1553 74.7525C99.267 76.6803 107.682 80.4692 116.237 86.0516C110.316 89.9174 104.467 92.9313 98.8102 95.0289C95.8787 96.1152 97.5624 100.688 100.504 99.5974C107.489 97.0079 114.716 93.1226 121.984 88.0493C123.335 87.1057 123.343 85.0028 121.984 84.0543ZM61.4045 26.1534C67.1969 35.0233 71.0467 43.6886 72.8615 51.9519C76.0671 66.5489 72.6344 82.8961 61.4045 93.3101C50.1746 82.8961 46.7419 66.5489 49.9475 51.9519C51.7623 43.6883 55.6121 35.0233 61.4045 26.1534ZM34.2532 44.8397C38.2333 47.1761 41.7983 49.6781 44.9001 52.3046C42.4161 65.0343 44.4855 78.3479 51.7014 89.235C35.5573 80.1917 30.1683 62.2801 34.2532 44.8397ZM6.76693 86.0487C15.3223 80.4621 23.6809 76.6891 31.6808 74.7983C35.6806 83.7055 42.9852 90.4259 51.6554 94.7234C52.7695 95.5259 54.0275 96.355 55.4252 97.1704C37.1433 102.389 18.5798 93.7192 6.76693 86.0487ZM71.1039 89.2411C78.3223 78.3533 80.3931 65.0401 77.9101 52.3093C81.0132 49.681 84.5798 47.1775 88.5624 44.8397C92.6484 62.2879 87.2558 80.1985 71.1039 89.2411Z" fill="#26E5AE"/>
<path d="M92.5707 99.5107C92.0672 98.283 90.613 97.6837 89.389 98.1929C88.1645 98.7023 87.5645 100.146 88.0734 101.372C88.5821 102.597 90.0256 103.2 91.253 102.69C92.4777 102.182 93.0816 100.738 92.5707 99.5107Z" fill="#26E5AE"/>
</g>
<defs>
<clipPath id="clip0">
<rect width="123" height="123" fill="white"/>
</clipPath>
</defs>
</svg>
