<svg width="122" height="122" viewBox="0 0 122 122" fill="none" xmlns="http://www.w3.org/2000/svg">
<path d="M102.983 80.4633C96.9988 84.4633 90.016 86.5776 82.7896 86.5776C62.7244 86.5776 46.4005 70.2534 46.4005 50.1885C46.4005 38.0831 52.3973 26.8033 62.4423 20.0154L70.9919 14.2375L60.7002 13.4889C59.3744 13.3926 58.0322 13.3438 56.7109 13.3438C42.1994 13.3438 28.5563 18.9948 18.2952 29.2559C8.03413 39.517 2.38281 53.1603 2.38281 67.6719C2.38281 82.1834 8.03389 95.8265 18.2952 106.088C28.5566 116.349 42.1994 122 56.7109 122C68.4015 122 79.5402 118.343 88.9225 111.425C98.1154 104.646 104.839 95.3509 108.367 84.5439L111.573 74.721L102.983 80.4633ZM84.6802 105.671C76.5352 111.677 66.8636 114.852 56.7109 114.852C30.6959 114.852 9.53125 93.6869 9.53125 67.6719C9.53125 43.7337 27.4536 23.9022 50.5833 20.8882C43.3667 28.8173 39.2521 39.2194 39.2521 50.1885C39.2521 74.1951 58.783 93.726 82.7896 93.726C87.9172 93.726 92.9433 92.8356 97.6789 91.1121C94.4423 96.7734 90.0453 101.715 84.6802 105.671Z" fill="#26E5AE"/>
<path d="M104.716 22.4001L118.06 0H93.6445V7.14844H105.481L92.1367 29.5485H119.617V22.4001H104.716Z" fill="#26E5AE"/>
<path d="M84.2901 27.2253H62.2131V34.3737H71.711L61.4134 51.6594H84.0556V44.5109H73.9925L84.2901 27.2253Z" fill="#26E5AE"/>
<path d="M97.5933 67.8525L104.111 56.9118H85.6645V64.0602H91.5319L85.0142 75.0009H104.37V67.8525H97.5933Z" fill="#26E5AE"/>
</svg>
